:SAMPLES-PER-SECOND 30
:FULLY-SPECIFIED
:DEGREES
49
root  44.3198 39.2573 21.2127 -37.2225 -84.991 34.6002
RightUpLeg  -21.353 -7.74272 -3.31346
RightLeg  3.90628 -4.94165 3.01639
RightFoot  0.421578 -0.559922 5.46174
RightToes  -1.16417e-010 0 -3.6325e-017
Spine  4.72594 -2.67707 -5.15304
Spine1  6.81775 -3.79008 3.30835
HEad  -10.1108 3.49419 -5.68748
LeftShoulder1  7.95591 -11.1971 -47.2167
LeftArm  -4.83564 4.84089 -30.0523
LeftForeArm  28.2345 -30.9822 -5.19472
LeftHand  -0.244104 0.0205437 5.32207
RightShoulder  5.63643 8.59496 40.4229
RightArm  -1.77286 -24.707 30.3315
RightForeArm  10.8586 10.0125 7.41669
RightHand  -0.910409 1.53508 -15.3653
LeftUpLeg  8.9984 5.19162 -3.89759
LeftLeg  10.8734 11.2586 -3.19203
LeftFoot  -18.1043 0.256544 2.51092
LeftToes  5.72949e-011 -1.2716e-010 -5.73128e-012
50
root  42.6705 38.91 21.3509 -34.4754 -84.0882 32.1672
RightUpLeg  -20.9075 -6.03421 -4.64111
RightLeg  -4.99986 -6.03377 5.31758
RightFoot  -0.771802 -0.622897 6.69196
RightToes  -1.16417e-010 0 -3.6325e-017
Spine  3.95761 -2.98431 -5.59035
Spine1  6.51818 -4.21272 4.12488
HEad  -10.2473 2.87994 -5.64066
LeftShoulder1  8.04294 -11.292 -47.4318
LeftArm  -3.99998 3.57086 -29.8846
LeftForeArm  28.7384 -31.7779 -5.35725
LeftHand  -0.244104 0.0205437 5.32207
RightShoulder  5.46117 8.34836 39.942
RightArm  -5.36103 -26.1409 29.6274
RightForeArm  11.8276 7.45213 6.79606
RightHand  -0.907299 1.53724 -15.3086
LeftUpLeg  11.7526 5.39161 -3.66576
LeftLeg  10.4628 9.78956 -3.71131
LeftFoot  -20.2828 0.279213 2.02455
LeftToes  5.72949e-011 -1.2716e-010 -5.73128e-012
51
root  40.9811 38.525 21.4697 -29.5528 -83.5153 27.302
RightUpLeg  -22.2582 -6.09055 -4.49558
RightLeg  -4.65605 -7.10086 5.36465
RightFoot  -2.40023 -0.591742 7.30359
RightToes  -1.16417e-010 0 -3.6325e-017
Spine  3.75409 -3.22334 -5.26594
Spine1  6.1019 -4.55638 4.74922
HEad  -10.694 2.49126 -5.63055
LeftShoulder1  8.08279 -11.3398 -47.5151
LeftArm  -3.19474 2.54246 -29.9533
LeftForeArm  28.6327 -31.6139 -5.3243
LeftHand  -0.244104 0.0205437 5.32207
RightShoulder  5.46312 8.36997 39.8768
RightArm  -7.34873 -26.9933 28.6512
RightForeArm  11.622 5.14399 5.99287
RightHand  -0.905199 1.49491 -15.3641
LeftUpLeg  14.5494 5.9374 -2.86733
LeftLeg  10.6443 7.99703 -3.66485
LeftFoot  -22.1875 0.260182 1.32909
LeftToes  5.72949e-011 -1.2716e-010 -5.73128e-012
52
root  39.2589 38.2299 21.5656 -18.7882 -82.9058 16.6596
RightUpLeg  -23.5354 -6.20244 -3.5794
RightLeg  0.220061 -11.1318 4.70272
RightFoot  -1.12915 -0.50005 5.5638
RightToes  -1.16417e-010 0 -3.6325e-017
Spine  3.5628 -3.66656 -4.16808
Spine1  6.04709 -5.29478 5.67428
HEad  -11.5585 2.60951 -5.65875
LeftShoulder1  8.07201 -11.3418 -47.4443
LeftArm  -2.88063 2.25497 -30.2749
LeftForeArm  28.3234 -30.9449 -5.18225
LeftHand  -0.244104 0.0205437 5.32207
RightShoulder  5.51724 8.45853 39.9833
RightArm  -8.58183 -27.18 27.5541
RightForeArm  11.3618 3.57305 5.40904
RightHand  -0.896387 1.42541 -15.3665
LeftUpLeg  16.8187 7.03992 -1.10466
LeftLeg  11.621 5.67124 -2.7767
LeftFoot  -22.9911 0.186509 0.491214
LeftToes  5.72949e-011 -1.2716e-010 -5.73128e-012
53
root  37.3854 38.0049 21.6599 -6.15878 -81.7506 4.0692
RightUpLeg  -25.0356 -8.97114 -1.01711
RightLeg  7.47083 -12.2482 2.7113
RightFoot  2.75303 -0.185123 1.76764
RightToes  -1.16417e-010 0 -3.6325e-017
Spine  2.83498 -4.4072 -2.38774
Spine1  6.29901 -6.26048 6.4093
HEad  -12.5269 2.8557 -5.95378
LeftShoulder1  8.09997 -11.3601 -47.5517
LeftArm  -2.76001 3.00188 -30.552
LeftForeArm  27.9298 -29.8438 -4.94686
LeftHand  -0.244104 0.0205437 5.32207
RightShoulder  5.46532 8.35079 39.9649
RightArm  -9.37624 -27.0598 26.6966
RightForeArm  10.9753 3.14437 5.08333
RightHand  -0.903033 1.47336 -15.3742
LeftUpLeg  18.6697 8.5395 1.53601
LeftLeg  13.7546 2.44783 -1.30767
LeftFoot  -23.0351 -0.0708795 -2.03056
LeftToes  5.72949e-011 -1.2716e-010 -5.73128e-012
